:SAMPLES-PER-SECOND 30
:FULLY-SPECIFIED
:DEGREES
265
root  34.78606517 36.49353568 -14.95334295 8.122917175 -6.130726337 3.773581743
lowerback  -6.984480381 -2.350120068 -1.434739947
upperback  -4.408269882 -2.60165 -3.128010035
thorax  -0.716727972 -1.122799993 -2.581640005
lowerneck  -6.056509972 -12.40470028 -11.21290016
upperneck  15.60910034 -17.09659958 11.16009998
head  7.742000103 -7.878789902 3.756669998
lclavicle  0 -4.497500157e-015 -2.743230041e-014
lhumerus  -51.08810043 29.31970024 62.292099
lradius  -2.057401616e-006 -6.507048965e-006 31.47585869
lwrist  4.824992743e-007 -3.790274832e-007 -26.89349937
lhand  -0 -37.01309967 -10.31019974
lfingers  90 7.125020027 -90
lthumb  94.79084903 -25.1488318 101.1565281
rclavicle  0 -4.497500157e-015 -2.743230041e-014
rhumerus  -71.70349884 -27.92270088 -14.66819859
rradius  -5.16745672e-007 2.214343908e-008 101.6159973
rwrist  -0.0001011603963 0.005031600595 173.3319855
rhand  -1.767212606e-031 2.476170063 -5.422440052
rfingers  -90 -7.125020027 -90
rthumb  -84.48345949 -10.26532806 -61.54421176
rfemur  -12.65059948 16.72586632 12.84972095
rtibia  -1.442720771 -1.069419742 21.67625046
rfoot  -0.02994325384 -22.22631454 -35.84170532
rtoes  3.79573557 19.65100414 -101.1603105
lfemur  -8.225168228 -16.92656326 -20.4604969
ltibia  2.169316292 -1.475454807 15.46739197
lfoot  1.012770772 -22.99601364 38.17128372
ltoes  -8.647682594 -18.10321961 -116.0794996
266
root  34.78390551 36.49400426 -14.95139655 8.136675835 -6.168945313 3.779721737
lowerback  -6.995670319 -2.361690044 -1.417679906
upperback  -4.389840126 -2.6208601 -3.101439953
thorax  -0.6916360259 -1.134009957 -2.565629959
lowerneck  -6.149859905 -12.33419991 -11.19379997
upperneck  15.69579983 -16.99490166 11.13790035
head  7.7709198 -7.824610233 3.754479885
lclavicle  0 -4.497500157e-015 -2.743230041e-014
lhumerus  -51.08160019 29.35899925 62.30220032
lradius  -2.057401616e-006 -6.507048965e-006 31.45794678
lwrist  4.824992743e-007 -3.790274832e-007 -26.91430092
lhand  -4.419710171e-031 -36.9701004 -10.3178997
lfingers  90 7.125020027 -90
lthumb  94.77266698 -25.15798234 101.1113659
rclavicle  0 -4.497500157e-015 -2.743230041e-014
rhumerus  -72.02120209 -28.03420067 -15.7451992
rradius  -5.16745672e-007 2.214343908e-008 101.4629974
rwrist  -0.0001011603963 0.00526454486 173.5379791
rhand  -0 2.550580025 -5.169179916
rfingers  -90 -7.125020027 -90
rthumb  -84.34203449 -10.49110678 -61.44912971
rfemur  -12.67399025 16.71018219 12.84065342
rtibia  -1.444236994 -1.086393595 21.68603706
rfoot  -0.03114520386 -22.25669861 -35.80786133
rtoes  3.810449628 19.64826482 -101.2040675
lfemur  -8.238963127 -16.94624519 -20.46718407
ltibia  2.172987938 -1.500667214 15.47060776
lfoot  1.00818038 -22.9390316 38.17984772
ltoes  -8.666422234 -18.09448966 -116.1398222
267
root  34.78302543 36.49388411 -14.94939158 8.134538651 -6.204969883 3.787034988
lowerback  -7.026060104 -2.379359961 -1.42451942
upperback  -4.369559765 -2.645829916 -3.068150043
thorax  -0.6527439952 -1.147400022 -2.530440092
lowerneck  -6.249899864 -12.27779961 -11.15450001
upperneck  15.76869965 -16.91309929 11.10859966
head  7.79640007 -7.779600143 3.74409008
lclavicle  0 -4.497500157e-015 -2.743230041e-014
lhumerus  -51.06280136 29.39049911 62.32630157
lradius  -2.057401616e-006 -6.507048965e-006 31.43499947
lwrist  4.824992743e-007 -3.790274832e-007 -26.88439941
lhand  -4.421889538e-031 -37.00759888 -10.36359978
lfingers  90 7.125020027 -90
lthumb  94.79973984 -25.2014694 101.1555299
rclavicle  0 -4.497500157e-015 -2.743230041e-014
rhumerus  -72.22730255 -28.25259972 -16.81719971
rradius  -5.16745672e-007 2.214343908e-008 101.25
rwrist  -0.0001011603963 0.005496935919 173.9390106
rhand  -1.767489847e-031 2.675940037 -5.194749832
rfingers  -90 -7.125020027 -90
rthumb  -84.32283054 -10.47408853 -61.32831348
rfemur  -12.67238426 16.70224953 12.82801914
rtibia  -1.442022324 -1.103604078 21.68347359
rfoot  -0.02415889502 -22.28991318 -35.76784897
rtoes  3.821741886 19.64615504 -101.2376527
lfemur  -8.225682259 -16.94919395 -20.48974037
ltibia  2.184716702 -1.508578539 15.46322346
lfoot  1.014327168 -22.92775345 38.19872665
ltoes  -8.653079154 -18.10070802 -116.0968682
268
root  34.78200116 36.49399224 -14.94490406 8.134812355 -6.248013973 3.78639555
lowerback  -7.033599854 -2.397619963 -1.453119636
upperback  -4.352680206 -2.671469927 -3.0306499
thorax  -0.6287130117 -1.160719991 -2.47784996
lowerneck  -6.361020088 -12.21109962 -11.09659958
upperneck  15.8427 -16.81329918 11.0479002
head  7.817540169 -7.72756958 3.722719908
lclavicle  0 -4.497500157e-015 -2.743230041e-014
lhumerus  -50.98189926 29.17760086 62.46699905
lradius  -2.057401616e-006 -6.507048965e-006 31.44630051
lwrist  4.824992743e-007 -3.790274832e-007 -26.61510086
lhand  -4.422675145e-031 -37.02109909 -10.36310005
lfingers  90 7.125020027 -90
lthumb  94.80587906 -25.20057739 101.1698657
rclavicle  0 -4.497500157e-015 -2.743230041e-014
rhumerus  -72.15319824 -28.35390091 -17.96929932
rradius  -5.16745672e-007 2.214343908e-008 100.6839981
rwrist  -0.0001011603963 0.005728622898 174.2259979
rhand  -1.767628974e-031 2.770750046 -5.212379932
rfingers  -90 -7.125020027 -90
rthumb  -84.3074923 -10.46274531 -61.23687187
rfemur  -12.65212631 16.63862801 12.8217001
rtibia  -1.429857373 -1.13552475 21.64968681
rfoot  0.006379745435 -22.35312653 -35.66476822
rtoes  3.793811613 19.65136151 -101.1545895
lfemur  -8.15073967 -16.93055344 -20.52818489
ltibia  2.239527941 -1.511230111 15.38209915
lfoot  1.032683372 -22.88031387 38.25240707
ltoes  -8.64070059 -18.10646615 -116.0570319
269
root  34.78165874 36.49261655 -14.93992843 8.101770401 -6.304332733 3.822309256
lowerback  -7.05163002 -2.397949934 -1.443850279
upperback  -4.357610226 -2.674069881 -2.989850044
thorax  -0.6223090291 -1.16257 -2.441649914
lowerneck  -6.427480221 -12.15410042 -11.05270004
upperneck  15.89500046 -16.72989845 11.0060997
head  7.828750134 -7.684659958 3.710089922
lclavicle  0 -4.497500157e-015 -2.743230041e-014
lhumerus  -50.96590042 29.12479973 62.51350021
lradius  -2.057401616e-006 -6.507048965e-006 31.44011879
lwrist  4.824992743e-007 -3.790274832e-007 -26.58880043
lhand  -4.419541843e-031 -36.96720123 -10.38029957
lfingers  90 7.125020027 -90
lthumb  94.78460285 -25.2192499 101.1139209
rclavicle  0 -4.497500157e-015 -2.743230041e-014
rhumerus  -72.17140198 -28.49330139 -19.05949593
rradius  -5.16745672e-007 2.214343908e-008 100.1959991
rwrist  -0.0001011603963 0.005959454924 174.2859955
rhand  -1.767612612e-031 2.759769917 -5.35367012
rfingers  -90 -7.125020027 -90
rthumb  -84.37934459 -10.33840874 -61.26012046
rfemur  -12.614995 16.63843155 12.78472996
rtibia  -1.432462096 -1.175243735 21.65365601
rfoot  -0.001059796428 -22.43216896 -35.63620377
rtoes  3.789500055 19.65216168 -101.141769
lfemur  -8.005705833 -16.90650177 -20.64406967
ltibia  2.336251259 -1.522227287 15.23001003
lfoot  1.042257786 -22.80509567 38.30615616
ltoes  -8.627379233 -18.1126513 -116.0141752
270
root  34.77750162 36.49403429 -14.93774024 8.130498886 -6.343757153 3.81125927
lowerback  -7.015649796 -2.410049915 -1.443929553
upperback  -4.352660179 -2.694489956 -2.96532011
thorax  -0.636473 -1.164643288 -2.416160107
lowerneck  -6.518350124 -12.09619999 -11.05169964
upperneck  15.99860001 -16.64800072 11.00629997
head  7.869160175 -7.638120174 3.715240002
lclavicle  0 -4.497500157e-015 -2.743230041e-014
lhumerus  -50.98709869 29.17090034 62.51929855
lradius  -2.057401616e-006 -6.507048965e-006 31.41731262
lwrist  4.824992743e-007 -3.790274832e-007 -26.61440086
lhand  -4.421278997e-031 -36.99710083 -10.40019989
lfingers  90 7.125020027 -90
lthumb  94.80267051 -25.23774187 101.1475836
rclavicle  0 -4.497500157e-015 -2.743230041e-014
rhumerus  -72.23809814 -28.6352005 -20.02399826
rradius  -5.16745672e-007 2.214343908e-008 99.57369995
rwrist  -0.0001011603963 0.006189281121 174.8619995
rhand  -1.767943699e-031 2.974050045 -5.416100025
rfingers  -90 -7.125020027 -90
rthumb  -84.35617278 -10.29343166 -61.05545454
rfemur  -12.62839413 16.61396599 12.78768444
rtibia  -1.424399257 -1.192476392 21.61783791
rfoot  0.02977731265 -22.45129395 -35.5685463
rtoes  3.805782822 19.64913484 -101.1901887
lfemur  -8.028018951 -16.97741508 -20.63048172
ltibia  2.336178303 -1.540802836 15.24469662
lfoot  1.059500337 -22.76267624 38.38282394
ltoes  -8.64716539 -18.10346021 -116.0778352
271
root  34.77625209 36.49531988 -14.93994495 8.15789032 -6.398725033 3.828361034
lowerback  -7.046230316 -2.40534997 -1.416570067
upperback  -4.331749916 -2.69133997 -2.947129965
thorax  -0.5982549787 -1.166917562 -2.414069891
lowerneck  -6.577360153 -12.05169964 -11.01099968
upperneck  16.0685997 -16.58450127 10.97439861
head  7.888569832 -7.603109837 3.703939915
lclavicle  0 -4.497500157e-015 -2.743230041e-014
lhumerus  -51.00540161 29.18869972 62.52249908
lradius  -2.057401616e-006 -6.507048965e-006 31.42048645
lwrist  4.824992743e-007 -3.790274832e-007 -26.57559967
lhand  -4.420616235e-031 -36.9856987 -10.42650032
lfingers  90 7.125020027 -90
lthumb  94.80301312 -25.26397725 101.1378152
rclavicle  0 -4.497500157e-015 -2.743230041e-014
rhumerus  -72.31700134 -28.80200005 -20.99189949
rradius  -5.16745672e-007 2.214343908e-008 99.10269928
rwrist  -0.0001011603963 0.00641795015 175.4589386
rhand  -1.768131753e-031 3.089119911 -4.974460125
rfingers  -90 -7.125020027 -90
rthumb  -84.10892776 -10.68472188 -60.90292682
rfemur  -12.68915558 16.61439705 12.76376438
rtibia  -1.442708492 -1.237072229 21.64879417
rfoot  0.0119027691 -22.5222168 -35.54640198
rtoes  3.786257412 19.65276285 -101.1321273
lfemur  -8.110850334 -16.92764091 -20.62220764
ltibia  2.307961941 -1.560716987 15.30642033
lfoot  1.05686903 -22.7520237 38.3464241
ltoes  -8.647391629 -18.10335497 -116.0785632
